<svg xmlns="http://www.w3.org/2000/svg" xmlns:xlink="http://www.w3.org/1999/xlink" viewBox="0 0 280 280"><defs><style>.cls-1{fill:#202020;}.cls-2{fill:url(#JasherIO_Gradient);}</style><linearGradient id="JasherIO_Gradient" x1="140" y1="260.19" x2="140" y2="7.88" gradientUnits="userSpaceOnUse"><stop offset="0" stop-color="#7ed957"/><stop offset="0.7" stop-color="#32a657"/></linearGradient></defs><title>JasherIO</title><g id="Layer_2" data-name="Layer 2"><g id="Gradient"><circle class="cls-1" cx="140" cy="140" r="140"/><path class="cls-2" d="M258.13,142.06A118.13,118.13,0,1,1,107.19,28.56V57.63a90.56,90.56,0,1,0,65.62,0V28.56A118.17,118.17,0,0,1,258.13,142.06ZM103.8,190.84c5.82,5.36,17.61,9.64,30.47,9.64,21.59,0,35.83-11.48,35.83-36.59V101.26H113.6v17.61h35.68v47c0,12.25-8,17.3-18.07,17.3a23,23,0,0,1-18.07-8.58h-2.76ZM154.22,56.66V22.09A14.25,14.25,0,0,0,140,7.88h0a14.25,14.25,0,0,0-14.22,14.21V56.66A14.26,14.26,0,0,0,140,70.88h0A14.26,14.26,0,0,0,154.22,56.66Z"/></g></g></svg>